<svg height="308.532507" viewBox="0 0 55.066806 52.314956" width="324.114957" xmlns="http://www.w3.org/2000/svg" xmlns:xlink="http://www.w3.org/1999/xlink"><linearGradient id="a"><stop offset="0" stop-color="#4ce9f2"/><stop offset=".6" stop-color="#00dfed"/><stop offset=".6413" stop-color="#00d6ea"/><stop offset=".7088" stop-color="#00bee3"/><stop offset=".7941" stop-color="#0096d6"/><stop offset=".8937" stop-color="#005fc5"/><stop offset="1" stop-color="#001cb0"/></linearGradient><linearGradient id="b" gradientTransform="scale(.92061666 1.0862284)" gradientUnits="userSpaceOnUse" x1="82.416527" x2="20.663845" xlink:href="#a" y1="102.19962" y2="36.965847"/><linearGradient id="c" gradientTransform="scale(1.6466985 .60727572)" gradientUnits="userSpaceOnUse" x1="42.775318" x2=".09685" xlink:href="#a" y1="243.10818" y2="223.79678"/><linearGradient id="d" gradientTransform="scale(.53228113 1.8787065)" gradientUnits="userSpaceOnUse" x1="183.13496" x2="163.43961" xlink:href="#a" y1="48.62468" y2=".593799"/><linearGradient id="e" gradientTransform="scale(.71741601 1.3938914)" gradientUnits="userSpaceOnUse" x1="171.31236" x2="207.64609" xlink:href="#a" y1="66.025314" y2="14.779096"/><linearGradient id="f" gradientTransform="scale(.97145172 1.0293872)" gradientUnits="userSpaceOnUse" x1="152.2309" x2="188.07318" xlink:href="#a" y1="100.79233" y2="63.477028"/><symbol id="g" overflow="visible"/><symbol id="h" overflow="visible"/><symbol id="i" overflow="visible"/><g fill="#fff" transform="matrix(.35277779 0 0 .35277779 -65.171169 -6.4788)"><use height="100%" width="100%" x="246.00549" xlink:href="#g" y="634.86292"/><use height="100%" width="100%" x="266.61771" xlink:href="#g" y="642.86322"/><use height="100%" width="100%" x="256.2402" xlink:href="#g" y="650.86353"/><use height="100%" width="100%" x="256.83801" xlink:href="#g" y="658.86377"/><use height="100%" width="100%" x="276.21469" xlink:href="#g" y="666.86407"/><use height="100%" width="100%" x="246.67751" xlink:href="#g" y="674.86438"/><use height="100%" width="100%" x="264.7627" xlink:href="#g" y="682.86469"/><use height="100%" width="100%" x="245.9481" xlink:href="#g" y="690.86499"/><use height="100%" width="100%" x="265.5817" xlink:href="#g" y="712.53558"/><use height="100%" width="100%" x="275.7674" xlink:href="#g" y="720.53589"/><use height="100%" width="100%" x="275.11359" xlink:href="#g" y="728.53619"/><use height="100%" width="100%" x="265.10571" xlink:href="#g" y="736.5365"/><use height="100%" width="100%" x="267.96591" xlink:href="#g" y="744.5368"/><use height="100%" width="100%" x="265.021" xlink:href="#g" y="752.53711"/><use height="100%" width="100%" x="272.5712" xlink:href="#g" y="774.2063"/><use height="100%" width="100%" x="274.95471" xlink:href="#g" y="782.2066"/><use height="100%" width="100%" x="244.9044" xlink:href="#g" y="790.20691"/><use height="100%" width="100%" x="264.03961" xlink:href="#g" y="798.20721"/><use height="100%" width="100%" x="534.9928" xlink:href="#g" y="634.8678"/><use height="100%" width="100%" x="542.07538" xlink:href="#g" y="656.53839"/><use height="100%" width="100%" x="540.99249" xlink:href="#g" y="664.5387"/><use height="100%" width="100%" x="526.41571" xlink:href="#g" y="672.539"/><use height="100%" width="100%" x="536.32019" xlink:href="#g" y="680.53302"/><use height="100%" width="100%" x="539.22522" xlink:href="#g" y="688.53333"/><use height="100%" width="100%" x="533.63501" xlink:href="#g" y="696.53363"/><use height="100%" width="100%" x="528.04688" xlink:href="#g" y="718.20282"/><use height="100%" width="100%" x="532.01239" xlink:href="#g" y="726.20312"/><use height="100%" width="100%" x="538.09052" xlink:href="#g" y="734.20343"/><use height="100%" width="100%" x="523.0069" xlink:href="#g" y="742.20367"/><use height="100%" width="100%" x="512.80017" xlink:href="#g" y="750.20398"/><use height="100%" width="100%" x="533.22479" xlink:href="#g" y="758.20428"/><use height="100%" width="100%" x="507.22699" xlink:href="#h" y="778.87097"/><use height="100%" width="100%" x="535.33948" xlink:href="#h" y="785.87085"/><use height="100%" width="100%" x="542.73389" xlink:href="#h" y="792.87073"/><use height="100%" width="100%" x="186.6324" xlink:href="#i" y="601.995"/></g><g fill="none" transform="matrix(.26458333 0 0 .26458333 .131933 .13262)"><path d="m118.43934 123.83607c-3.56721 0-6.86885.44262-9.81639 1.32131-2.9377.87541-5.39016 1.88852-7.28525 3.00983l-.20655.12459 1.3377 4.13443.32131-.17705c1.99345-1.09836 4.27869-2.00656 6.78361-2.6918 2.51148-.68853 5.49508-1.03607 8.86557-1.03607 4.29509 0 7.62623.99672 9.89509 2.96066 2.25573 1.9541 3.4 5.43278 3.4 10.3377v3.25574h-12.04263c-7.3541 0-13.00983 1.39344-16.80983 4.1377-3.83279 2.76722-5.773773 6.96722-5.773773 12.48197 0 2.40328.413114 4.55738 1.229508 6.39672.813115 1.84263 1.967215 3.42623 3.422955 4.7082 1.45245 1.27541 3.19344 2.2459 5.18032 2.88525 1.9705.63606 4.11476.95737 6.36722.95737 4.35737 0 8.17705-.96393 11.34754-2.86885 2.92459-1.7541 5.34098-4.20328 7.19016-7.27869l1.17705 9.31148h4.01967v-33.99017c0-5.4918-1.56065-9.90819-4.63278-13.12787-3.07541-3.21967-7.77705-4.85245-13.9705-4.85245zm13.29836 25.91803v5.34754c0 2.04262-.41311 4.08197-1.23278 6.05574-.81967 1.98032-2.01312 3.79672-3.54754 5.4-1.53443 1.60328-3.45574 2.91803-5.7082 3.90819-2.24918.99017-4.88197 1.49181-7.82951 1.49181-1.49836 0-2.94754-.20656-4.30819-.61312-1.35082-.40328-2.54427-1.03606-3.5541-1.87869-1.00656-.83934-1.80656-1.91147-2.37705-3.18688-.57049-1.27869-.8623-2.81967-.8623-4.58361 0-4.13115 1.34754-7.18033 4.00328-9.06229 2.6918-1.9082 7.19017-2.87541 13.37377-2.87541h12.04262zm51.99345-15.75738c-.62623-1.01639-1.38033-2.03606-2.24918-3.0459-1.09508-1.27213-2.4164-2.44918-3.92787-3.50164-1.51476-1.05574-3.24262-1.93115-5.14426-2.6-1.9082-.67213-4.05246-1.00984-6.37705-1.00984-2.88853 0-5.64263.59017-8.18033 1.7541-2.53771 1.16394-4.80656 2.89836-6.74426 5.15082-1.93443 2.25246-3.48525 5.02951-4.60656 8.25574s-1.6918 6.9541-1.6918 11.08197c0 4.68852.55082 8.74754 1.63606 12.07213 1.08853 3.3377 2.62295 6.12131 4.56066 8.26885 1.94098 2.1541 4.26885 3.74754 6.91803 4.73443 2.63934.9836 5.54098 1.48196 8.62951 1.48196 4.01639 0 7.54098-1.00327 10.47213-2.98032 2.62623-1.77377 4.83934-4.11476 6.59016-6.97705v6.41311c0 3.43279-.4 6.39344-1.18688 8.79672-.78361 2.38361-1.88853 4.33443-3.27869 5.79672-1.38689 1.45574-3.08852 2.51804-5.05246 3.16394-1.98688.64918-4.24262.98033-6.70492.98033-3.23278 0-6.25246-.38361-8.96721-1.13771-2.72787-.76065-5.08197-1.66885-7-2.69508l-.31803-.17049-1.44263 4.45246.22295.11803c1.95738 1.04918 4.45574 2.04262 7.42951 2.95082 2.98361.91148 6.30164 1.37377 9.86886 1.37377 6.81311 0 12.21639-1.96393 16.06229-5.84262 3.83934-3.87869 5.78689-9.82623 5.78689-17.68197v-48.52459h-4.12459zm-.11148 6.22951v13.09836c0 2.25902-.36393 4.51803-1.08197 6.70492-.71803 2.1836-1.79016 4.17705-3.19016 5.92131-1.39672 1.7377-3.16065 3.1541-5.23606 4.20984-2.07214 1.05245-4.5082 1.58688-7.23935 1.58688-2.11803 0-4.21311-.38033-6.22295-1.13115-2.00328-.74426-3.79016-1.98688-5.32131-3.68524-1.53443-1.70492-2.78033-3.95738-3.70492-6.69508-.92459-2.74427-1.39672-6.16066-1.39672-10.1541 0-3.64918.45246-6.85246 1.34426-9.52787.88853-2.66885 2.10164-4.90492 3.60328-6.6459 1.49508-1.73115 3.23607-3.04263 5.17377-3.89509 1.94098-.84918 4.03279-1.28196 6.20656-1.28196 3.54426 0 6.79016 1.05246 9.65574 3.13442 2.86557 2.07541 5.35737 4.89181 7.40983 8.36066zm18.09508-35.53115h5.41312v71.1082h-5.41312z" fill="#000"/><path d="m19.055738 40.177049c3.665574-2.940983 9.072131-2.347541 12.013115 1.318033l46.154098 57.527869c2.940983 3.665569 2.347541 9.072129-1.318033 12.013119-3.665574 2.94098-9.072131 2.34754-12.013115-1.31804l-46.154098-57.527866c-2.940984-3.665574-2.347541-9.072131 1.318033-12.013115z" fill="url(#b)" transform="translate(0 -1)"/><path d="m.1180328 136.00984c.77377048-4.63607 5.2-7.79672 9.8360656-7.02296l53.4196726 8.91148c4.636065.77377 7.796721 5.2 7.02295 9.83607-.77377 4.63606-5.2 7.79672-9.836065 7.02295l-53.4229511-8.91148c-4.6360656-.77377-7.7934426-5.2-7.0196721-9.83606z" fill="url(#c)" transform="translate(0 -1)"/><path d="m87.026229 1.0557377c4.668853-.5409836 8.931148 2.8327869 9.47541 7.5016394l8.508201 73.2622949c.54098 4.668853-2.83279 8.931148-7.501643 9.47541-4.668853.540984-8.931148-2.832787-9.47541-7.501639l-8.508197-73.262295c-.540983-4.6688529 2.832787-8.931148 7.501639-9.4754103z" fill="url(#d)" transform="translate(0 -1)"/><path d="m149 20.57377c4.41639 1.609837 6.7082 6.540984 5.09836 10.957377l-20.20983 55.37705c-1.60984 4.416393-6.54099 6.708196-10.95738 5.09836-4.4164-1.609836-6.7082-6.540983-5.09836-10.957377l20.20983-55.377049c1.61312-4.416393 6.54099-6.708197 10.95738-5.098361z" fill="url(#e)" transform="translate(0 -1)"/><path d="m182.72459 65.318033c3.48197 3.157377 3.74754 8.586885.59344 12.068852l-23.34098 25.750815c-3.15738 3.48197-8.58689 3.74755-12.06885.59345-3.48197-3.15738-3.74754-8.586888-.59345-12.068855l23.34099-25.75082c3.1541-3.481967 8.58688-3.747541 12.06885-.593442z" fill="url(#f)" transform="translate(0 -1)"/></g></svg>